<svg width="750" height="537" viewBox="0 0 750 537" fill="none" xmlns="http://www.w3.org/2000/svg">
<g clip-path="url(#clip0_25_107)">
<mask id="mask0_25_107" style="mask-type:luminance" maskUnits="userSpaceOnUse" x="0" y="0" width="750" height="537">
<path d="M750 0H0V537H750V0Z" fill="white"/>
</mask>
<g mask="url(#mask0_25_107)">
<path d="M402.322 0.333008H124.1C95.3812 0.333008 72.1 23.6142 72.1 52.333V608.059C72.1 636.778 95.3812 660.059 124.1 660.059H402.322C431.041 660.059 454.322 636.778 454.322 608.059V52.333C454.322 23.6142 431.041 0.333008 402.322 0.333008Z" fill="url(#paint0_linear_25_107)"/>
<path d="M437.802 603.705C437.802 623.573 421.17 639.68 400.653 639.68H128.22C107.703 639.68 91.0699 623.573 91.0699 603.705V52.08C91.0699 32.212 107.703 16.105 128.22 16.105H165.37V28.99C165.37 42.239 176.455 52.974 190.136 52.974H338.736C352.417 52.974 363.502 42.239 363.502 28.99V16.105H400.652C421.169 16.105 437.801 32.212 437.801 52.08L437.802 603.705Z" fill="url(#paint1_linear_25_107)"/>
<path d="M312.16 25.925H214.258C210.787 25.925 207.974 28.7385 207.974 32.209C207.974 35.6796 210.787 38.493 214.258 38.493H312.16C315.631 38.493 318.444 35.6796 318.444 32.209C318.444 28.7385 315.631 25.925 312.16 25.925Z" fill="white"/>
<path d="M285.687 100.884H186.204V111.356H285.687V100.884Z" fill="#F2F4FA"/>
<path d="M332.81 125.946H186.204V136.418H332.81V125.946Z" fill="#F2F4FA"/>
<path d="M412.435 163.423H129.695V173.895H412.435V163.423Z" fill="#F2F4FA"/>
<path opacity="0.46" d="M213.47 204.37H129.695V309.088H213.47V204.37Z" fill="#E3E7F3"/>
<path opacity="0.46" d="M312.953 204.37H229.178V309.088H312.953V204.37Z" fill="#E3E7F3"/>
<path opacity="0.46" d="M412.435 204.37H328.66V309.088H412.435V204.37Z" fill="#E3E7F3"/>
<path opacity="0.22" d="M93.17 87H437.216" stroke="#EBBEEE"/>
<path opacity="0.22" d="M93.17 323.679H437.216" stroke="#EBBEEE"/>
<g opacity="0.39">
<path d="M146.501 141.613C158.356 141.613 167.967 132.002 167.967 120.147C167.967 108.292 158.356 98.681 146.501 98.681C134.646 98.681 125.035 108.292 125.035 120.147C125.035 132.002 134.646 141.613 146.501 141.613Z" fill="#B9C4E1"/>
<path d="M146.5 127.426C151.112 127.426 154.85 122.593 154.85 116.631C154.85 110.669 151.112 105.836 146.5 105.836C141.888 105.836 138.15 110.669 138.15 116.631C138.15 122.593 141.888 127.426 146.5 127.426Z" fill="white"/>
<path d="M146.501 128.227C139.783 128.227 133.866 130.653 130.401 134.334C132.414 136.62 134.891 138.452 137.667 139.706C140.443 140.961 143.455 141.61 146.501 141.61C149.547 141.61 152.559 140.961 155.335 139.706C158.111 138.452 160.588 136.62 162.601 134.334C159.136 130.653 153.22 128.227 146.501 128.227Z" fill="white"/>
<path d="M146.501 120.147H146.5C144.418 120.147 142.73 121.835 142.73 123.917V130.009C142.73 132.091 144.418 133.779 146.5 133.779H146.501C148.583 133.779 150.271 132.091 150.271 130.009V123.917C150.271 121.835 148.583 120.147 146.501 120.147Z" fill="white"/>
<path d="M139.303 117.132C139.789 118.532 139.596 119.871 138.872 120.122C138.148 120.373 137.172 119.443 136.681 118.043C136.19 116.643 136.388 115.305 137.112 115.053C137.836 114.801 138.818 115.732 139.303 117.132Z" fill="white"/>
<path d="M153.698 117.132C153.212 118.532 153.405 119.871 154.129 120.122C154.853 120.373 155.829 119.443 156.32 118.043C156.811 116.643 156.613 115.305 155.889 115.053C155.165 114.801 154.184 115.732 153.698 117.132Z" fill="white"/>
<path d="M156.745 118.064C156.562 115.399 156.653 112.664 155.795 110.133C155.318 108.705 154.533 107.399 153.497 106.307C152.46 105.215 151.196 104.364 149.795 103.813C148.384 103.287 146.862 103.126 145.372 103.345C143.882 103.564 142.471 104.156 141.271 105.065C140.831 105.354 140.466 105.745 140.208 106.205C139.95 106.664 139.807 107.179 139.789 107.706C139.051 107.543 138.28 107.642 137.608 107.986C136.935 108.329 136.403 108.896 136.102 109.589C135.54 110.996 135.354 112.525 135.562 114.025C135.84 118.434 136.512 122.955 135.319 127.204L146.297 127.536C147.469 127.572 148.642 127.607 149.813 127.556C152.801 127.427 155.898 126.756 158.713 127.767C157.634 124.633 156.972 121.371 156.745 118.064Z" fill="white"/>
</g>
<g filter="url(#filter0_d_25_107)">
<path d="M149.625 340.068L144.609 331.468H63C61.4087 331.468 59.8826 330.836 58.7574 329.711C57.6321 328.585 57 327.059 57 325.468V276.76C57 275.169 57.6321 273.643 58.7574 272.517C59.8826 271.392 61.4087 270.76 63 270.76H246.616C248.207 270.76 249.733 271.392 250.859 272.517C251.984 273.643 252.616 275.169 252.616 276.76V325.468C252.616 327.059 251.984 328.585 250.859 329.711C249.733 330.836 248.207 331.468 246.616 331.468H165.007L159.991 340.068C159.463 340.974 158.706 341.725 157.797 342.247C156.887 342.77 155.857 343.044 154.809 343.044C153.76 343.044 152.73 342.77 151.82 342.247C150.911 341.725 150.153 340.974 149.625 340.068Z" fill="#C197EF"/>
</g>
<path d="M95.492 314.088C95.4276 314.088 95.3633 314.082 95.3 314.071C92.2266 313.915 89.2969 312.722 86.9895 310.686C84.682 308.65 83.1333 305.892 82.5963 302.862C82.0593 299.831 82.5658 296.709 84.0331 294.004C85.5004 291.299 87.8416 289.171 90.6743 287.969C93.507 286.767 96.6638 286.561 99.6287 287.385C102.594 288.209 105.192 290.014 106.998 292.505C108.804 294.996 109.712 298.027 109.574 301.101C109.435 304.175 108.258 307.111 106.235 309.43L109.683 312.322C109.84 312.454 109.953 312.631 110.006 312.829C110.059 313.027 110.05 313.237 109.98 313.43C109.91 313.623 109.782 313.79 109.614 313.907C109.445 314.025 109.245 314.088 109.04 314.088H95.492Z" fill="white"/>
<path d="M138.299 294.864C138.618 293.156 139.475 291.595 140.745 290.409C142.015 289.223 143.631 288.474 145.357 288.272C147.083 288.071 148.828 288.427 150.337 289.288C151.846 290.15 153.04 291.471 153.744 293.06C154.28 292 155.041 291.07 155.973 290.334C156.906 289.599 157.988 289.077 159.144 288.804C160.3 288.531 161.502 288.514 162.665 288.755C163.828 288.995 164.925 289.487 165.878 290.196C166.831 290.904 167.617 291.813 168.182 292.858C168.747 293.902 169.077 295.058 169.149 296.244C169.22 297.429 169.031 298.616 168.596 299.721C168.16 300.826 167.488 301.822 166.627 302.64L154.73 313.973C154.529 314.164 154.293 314.314 154.034 314.414C153.775 314.514 153.499 314.561 153.222 314.555C152.945 314.548 152.672 314.486 152.418 314.374C152.165 314.261 151.936 314.1 151.745 313.899L140.415 302.004C139.521 301.067 138.862 299.931 138.494 298.69C138.126 297.448 138.059 296.137 138.299 294.864Z" fill="white"/>
<path d="M212.051 299.824C213.33 299.824 214.58 299.445 215.643 298.735C216.706 298.025 217.535 297.015 218.025 295.833C218.514 294.652 218.642 293.352 218.393 292.098C218.143 290.844 217.528 289.692 216.623 288.788C215.719 287.883 214.567 287.268 213.313 287.018C212.059 286.769 210.759 286.897 209.577 287.386C208.396 287.876 207.386 288.705 206.676 289.768C205.966 290.831 205.587 292.081 205.587 293.36C205.587 294.209 205.754 295.049 206.079 295.834C206.404 296.618 206.88 297.331 207.48 297.931C208.08 298.531 208.793 299.007 209.577 299.332C210.361 299.657 211.202 299.824 212.051 299.824ZM212.051 303.056C207.736 303.056 199.122 305.222 199.122 309.521V312.753H224.98V309.521C224.98 305.222 216.366 303.056 212.051 303.056Z" fill="white"/>
<path d="M749 497H-1V771H749V497Z" fill="white"/>
<g filter="url(#filter1_d_25_107)">
<path d="M72.5 183C83.8218 183 93 173.822 93 162.5C93 151.178 83.8218 142 72.5 142C61.1782 142 52 151.178 52 162.5C52 173.822 61.1782 183 72.5 183Z" fill="white"/>
</g>
<g filter="url(#filter2_d_25_107)">
<path d="M76.5 261C83.9558 261 90 254.956 90 247.5C90 240.044 83.9558 234 76.5 234C69.0442 234 63 240.044 63 247.5C63 254.956 69.0442 261 76.5 261Z" fill="white"/>
</g>
<g filter="url(#filter3_d_25_107)">
<path d="M99.5 230C110.822 230 120 220.822 120 209.5C120 198.178 110.822 189 99.5 189C88.1782 189 79 198.178 79 209.5C79 220.822 88.1782 230 99.5 230Z" fill="white"/>
</g>
<g filter="url(#filter4_d_25_107)">
<path d="M54.5 122C63.0604 122 70 115.06 70 106.5C70 97.9396 63.0604 91 54.5 91C45.9396 91 39 97.9396 39 106.5C39 115.06 45.9396 122 54.5 122Z" fill="white"/>
</g>
<path d="M60.5724 163.231C60.3537 162.036 60.523 160.801 61.0557 159.708C61.5884 158.615 62.4565 157.721 63.5333 157.157C64.6101 156.592 65.8392 156.387 67.041 156.571C68.2428 156.754 69.3544 157.317 70.2136 158.178C70.2985 157.351 70.5629 156.553 70.9884 155.84C71.4139 155.127 71.9902 154.515 72.6769 154.048C73.3636 153.58 74.1441 153.269 74.9639 153.134C75.7836 153 76.6228 153.047 77.4226 153.271C78.2224 153.495 78.9636 153.891 79.5943 154.432C80.225 154.973 80.7299 155.644 81.0737 156.401C81.4175 157.157 81.5919 157.979 81.5848 158.81C81.5776 159.64 81.389 160.459 81.0321 161.209L76.0952 171.598C75.9267 171.95 75.6251 172.222 75.2567 172.353C74.8883 172.483 74.483 172.463 74.1297 172.295L63.7467 167.366C62.9273 166.978 62.212 166.401 61.66 165.682C61.108 164.963 60.7352 164.123 60.5724 163.231Z" fill="#F12F84"/>
<path d="M69.9002 243.613C70.2125 242.9 70.7448 242.305 71.4193 241.915C72.0938 241.525 72.8752 241.362 73.6494 241.448C74.4235 241.534 75.1499 241.865 75.7223 242.393C76.2948 242.922 76.6834 243.619 76.8313 244.384C77.1724 243.974 77.5989 243.644 78.081 243.417C78.563 243.19 79.0889 243.071 79.6218 243.068C80.1547 243.066 80.6818 243.18 81.166 243.402C81.6502 243.625 82.0799 243.95 82.425 244.357C82.77 244.763 83.0221 245.239 83.1635 245.753C83.305 246.267 83.3323 246.805 83.2437 247.331C83.1551 247.856 82.9526 248.356 82.6505 248.795C82.3484 249.234 81.9539 249.602 81.4947 249.872L75.1528 253.625C75.0458 253.688 74.9272 253.73 74.804 253.748C74.6808 253.765 74.5553 253.758 74.4348 253.727C74.3143 253.696 74.2011 253.642 74.1016 253.567C74.0022 253.492 73.9185 253.398 73.8554 253.291L70.1037 246.947C69.8075 246.447 69.6346 245.884 69.5992 245.305C69.5638 244.725 69.667 244.145 69.9002 243.613Z" fill="#F12F84"/>
<g filter="url(#filter5_d_25_107)">
<path d="M635.5 334H370.5C348.685 334 331 351.685 331 373.5C331 395.315 348.685 413 370.5 413H635.5C657.315 413 675 395.315 675 373.5C675 351.685 657.315 334 635.5 334Z" fill="white"/>
</g>
<g filter="url(#filter6_d_25_107)">
<path d="M382.5 399C397.136 399 409 387.136 409 372.5C409 357.864 397.136 346 382.5 346C367.864 346 356 357.864 356 372.5C356 387.136 367.864 399 382.5 399Z" stroke="white" stroke-width="2"/>
</g>
<g filter="url(#filter7_d_25_107)">
<path d="M422.5 399C437.136 399 449 387.136 449 372.5C449 357.864 437.136 346 422.5 346C407.864 346 396 357.864 396 372.5C396 387.136 407.864 399 422.5 399Z" stroke="white" stroke-width="2"/>
</g>
<g filter="url(#filter8_d_25_107)">
<path d="M463.5 399C478.136 399 490 387.136 490 372.5C490 357.864 478.136 346 463.5 346C448.864 346 437 357.864 437 372.5C437 387.136 448.864 399 463.5 399Z" stroke="white" stroke-width="2"/>
</g>
<g filter="url(#filter9_d_25_107)">
<path d="M503.5 399C518.136 399 530 387.136 530 372.5C530 357.864 518.136 346 503.5 346C488.864 346 477 357.864 477 372.5C477 387.136 488.864 399 503.5 399Z" stroke="white" stroke-width="2"/>
</g>
<g filter="url(#filter10_d_25_107)">
<path d="M543.5 399C558.136 399 570 387.136 570 372.5C570 357.864 558.136 346 543.5 346C528.864 346 517 357.864 517 372.5C517 387.136 528.864 399 543.5 399Z" stroke="white" stroke-width="2"/>
</g>
<g filter="url(#filter11_d_25_107)">
<path d="M584.5 399C599.136 399 611 387.136 611 372.5C611 357.864 599.136 346 584.5 346C569.864 346 558 357.864 558 372.5C558 387.136 569.864 399 584.5 399Z" stroke="white" stroke-width="2"/>
</g>
<path d="M238.91 305.557C250.892 309.323 263.726 309.423 275.765 305.842C287.804 302.262 298.498 295.166 306.475 285.464C306.172 287.028 305.989 288.613 305.926 290.204C305.859 291.72 308.209 291.769 308.276 290.258C308.454 286.272 310.26 282.72 310.505 278.831C310.506 278.599 310.439 278.372 310.312 278.178C310.185 277.983 310.004 277.831 309.791 277.738C309.578 277.646 309.343 277.618 309.115 277.658C308.886 277.698 308.675 277.803 308.506 277.962C304.882 282.063 299.834 284.127 295.229 286.886C293.934 287.66 295.068 289.719 296.368 288.941C299.009 287.363 301.77 285.995 304.352 284.377C296.642 293.596 286.366 300.316 274.83 303.685C263.294 307.053 251.017 306.918 239.558 303.297C238.112 302.842 237.468 305.105 238.91 305.557Z" fill="#A95BD1"/>
<path d="M247.905 302.74C248.86 303.07 249.288 301.564 248.338 301.235C247.176 300.833 246.05 300.331 244.881 299.95C243.917 299.636 243.494 301.142 244.45 301.455C245.619 301.836 246.744 302.338 247.905 302.74Z" fill="#A95BD1"/>
<path d="M102.63 218.018C101.214 218.042 99.7975 217.972 98.3903 217.81C97.9192 217.72 97.4654 217.557 97.046 217.324C96.7472 217.178 96.4991 216.946 96.334 216.657C96.1689 216.368 96.0943 216.037 96.1201 215.705C96.1872 213.514 96.2187 211.323 96.2421 209.132C96.2581 208.374 96.4884 207.636 96.9063 207.004C97.4506 206.132 98.0178 205.277 98.6078 204.437C99.44 203.39 99.8384 202.063 99.7208 200.73C99.6651 200.255 99.7068 199.772 99.6959 199.291C99.6786 198.416 99.9412 198.101 100.8 197.967C101.368 197.868 101.954 197.967 102.458 198.249C102.962 198.531 103.353 198.978 103.566 199.515C103.982 200.509 104.135 201.594 104.01 202.665C103.967 203.234 103.895 203.8 103.792 204.361C103.71 204.784 103.826 204.93 104.262 204.926C105.334 204.922 106.406 204.953 107.482 204.981C107.87 204.989 108.257 205.019 108.641 205.072C109.005 205.082 109.361 205.184 109.675 205.369C109.989 205.553 110.251 205.814 110.438 206.126C110.625 206.439 110.73 206.794 110.743 207.158C110.757 207.522 110.678 207.883 110.515 208.209C110.435 208.363 110.406 208.539 110.43 208.712C110.454 208.884 110.532 209.045 110.651 209.171C110.935 209.615 111.053 210.145 110.982 210.667C110.912 211.189 110.659 211.669 110.267 212.022C110.157 212.09 110.074 212.194 110.032 212.317C109.989 212.44 109.991 212.573 110.035 212.695C110.17 213.137 110.142 213.614 109.954 214.037C109.767 214.461 109.434 214.802 109.016 215.001C108.917 215.044 108.835 215.12 108.784 215.215C108.733 215.311 108.715 215.42 108.734 215.527C108.79 215.868 108.765 216.218 108.661 216.548C108.557 216.878 108.377 217.179 108.136 217.427C107.895 217.675 107.599 217.862 107.272 217.975C106.945 218.088 106.596 218.123 106.254 218.076C105.135 218.071 104.016 218.043 102.63 218.018Z" fill="#C197EF"/>
<path d="M94.9424 211.675C94.9127 213.246 94.8907 214.82 94.8547 216.391C94.8324 217.361 94.4738 217.707 93.507 217.696C92.5402 217.685 91.5938 217.675 90.6371 217.643C90.4703 217.663 90.301 217.645 90.1426 217.589C89.9841 217.533 89.8408 217.441 89.724 217.32C89.6072 217.199 89.52 217.053 89.4694 216.893C89.4187 216.733 89.406 216.563 89.4322 216.397C89.4772 213.183 89.5345 209.97 89.6042 206.758C89.5853 206.591 89.6049 206.422 89.6615 206.263C89.7182 206.105 89.8104 205.962 89.9311 205.845C90.0518 205.728 90.1977 205.64 90.3576 205.588C90.5176 205.536 90.6873 205.521 90.8538 205.545C91.8116 205.536 92.7678 205.56 93.7245 205.592C94.6812 205.624 95.0373 205.994 95.025 206.958C95.0034 208.529 94.9705 210.105 94.9424 211.675Z" fill="#C197EF"/>
<path d="M56.811 112.787C55.7655 112.805 54.72 112.753 53.6812 112.633C53.3342 112.569 52.9997 112.449 52.6904 112.279C52.4709 112.171 52.2888 112 52.1676 111.787C52.0464 111.575 51.9916 111.331 52.0104 111.087C52.0602 109.461 52.0821 107.845 52.0989 106.228C52.11 105.669 52.2786 105.126 52.5855 104.659C52.9876 104.016 53.4061 103.385 53.8411 102.765C54.456 101.991 54.7505 101.011 54.6639 100.027C54.6232 99.6766 54.653 99.3163 54.6449 98.9654C54.6325 98.3199 54.8266 98.0866 55.4602 97.9919C55.8796 97.9186 56.3116 97.9919 56.6833 98.1996C57.0551 98.4073 57.3439 98.7367 57.5013 99.1324C57.8089 99.8663 57.9218 100.667 57.829 101.458C57.7967 101.878 57.742 102.297 57.6653 102.712C57.6057 103.029 57.6899 103.132 58.0113 103.13C58.8025 103.128 59.5951 103.149 60.3877 103.17C60.6739 103.176 60.9595 103.198 61.2432 103.237C61.5119 103.245 61.7742 103.32 62.006 103.456C62.2377 103.593 62.4315 103.785 62.5693 104.016C62.7072 104.246 62.7847 104.508 62.7946 104.777C62.8046 105.045 62.7468 105.312 62.6264 105.552C62.5677 105.667 62.5458 105.796 62.5638 105.923C62.5818 106.05 62.6387 106.169 62.7267 106.262C62.9363 106.59 63.0228 106.981 62.9709 107.366C62.9189 107.752 62.7318 108.106 62.443 108.366C62.3614 108.416 62.2999 108.493 62.2686 108.584C62.2374 108.675 62.2384 108.773 62.2716 108.863C62.3707 109.189 62.3496 109.54 62.2123 109.851C62.075 110.163 61.8304 110.415 61.523 110.562C61.4499 110.594 61.3897 110.65 61.3521 110.721C61.3144 110.791 61.3015 110.872 61.3154 110.951C61.3572 111.203 61.3392 111.461 61.2628 111.705C61.1865 111.949 61.054 112.171 60.8759 112.355C60.6979 112.538 60.4793 112.677 60.2377 112.76C59.9962 112.844 59.7384 112.869 59.4852 112.835C58.6594 112.826 57.8337 112.807 56.811 112.787Z" fill="#C197EF"/>
<path d="M51.1363 108.105C51.1142 109.264 51.0985 110.426 51.0704 111.581C51.0548 112.297 50.7896 112.553 50.076 112.545C49.3624 112.537 48.665 112.534 47.9583 112.509C47.8351 112.525 47.7099 112.512 47.5926 112.471C47.4753 112.43 47.3692 112.362 47.2827 112.273C47.1962 112.184 47.1316 112.075 47.0941 111.957C47.0566 111.839 47.0472 111.713 47.0666 111.59C47.1018 109.217 47.1451 106.846 47.1963 104.475C47.182 104.352 47.1962 104.227 47.238 104.11C47.2798 103.993 47.3479 103.887 47.4371 103.801C47.5264 103.714 47.6343 103.65 47.7526 103.612C47.8708 103.574 47.9962 103.564 48.119 103.582C48.8256 103.575 49.5322 103.594 50.2375 103.617C50.9428 103.64 51.2059 103.913 51.1975 104.625C51.182 105.782 51.1561 106.944 51.1363 108.105Z" fill="#C197EF"/>
<path d="M294.821 369.488C295.711 370.217 296.533 371.096 295.999 372.271C295.346 373.706 293.01 374.048 291.694 374.522C289.372 375.358 287.026 376.126 284.667 376.846C282.79 377.418 281.747 374.538 283.639 373.961C285.343 373.442 287.04 372.9 288.726 372.32C288.811 372.291 289.014 372.23 289.29 372.15C281.031 372.238 272.901 370.108 265.747 365.981C258.593 361.854 252.678 355.882 248.62 348.689C247.674 346.984 250.17 345.207 251.124 346.934C254.923 353.756 260.502 359.418 267.266 363.318C274.03 367.219 281.725 369.21 289.532 369.081C288.474 368.188 287.415 367.294 286.355 366.4C286.063 366.136 285.884 365.768 285.855 365.375C285.827 364.981 285.951 364.592 286.202 364.288C286.454 363.984 286.812 363.788 287.204 363.742C287.596 363.696 287.991 363.803 288.306 364.041C290.144 365.591 291.983 367.142 293.822 368.694C293.895 368.754 293.977 368.819 294.057 368.881C294.38 368.977 294.655 369.194 294.821 369.488Z" fill="#A95BD1"/>
<path d="M270.395 374.651C267.519 374.074 264.718 373.168 262.049 371.952C260.24 371.158 261.523 368.379 263.326 369.171C265.756 370.283 268.306 371.11 270.926 371.636C271.318 371.715 271.663 371.944 271.888 372.274C272.114 372.604 272.201 373.009 272.132 373.403C272.062 373.796 271.842 374.147 271.517 374.38C271.193 374.613 270.79 374.711 270.395 374.651Z" fill="#A95BD1"/>
<g filter="url(#filter12_d_25_107)">
<path d="M624.5 400C639.688 400 652 387.688 652 372.5C652 357.312 639.688 345 624.5 345C609.312 345 597 357.312 597 372.5C597 387.688 609.312 400 624.5 400Z" fill="#F6EDF3"/>
<path d="M624.5 399C639.136 399 651 387.136 651 372.5C651 357.864 639.136 346 624.5 346C609.864 346 598 357.864 598 372.5C598 387.136 609.864 399 624.5 399Z" stroke="white" stroke-width="2"/>
</g>
<path d="M632.395 375.445H626.914V381.071H623.086V375.445H617.605V371.907H623.086V366.281H626.914V371.907H632.395V375.445Z" fill="#BC99B3"/>
</g>
</g>
<defs>
<filter id="filter0_d_25_107" x="51" y="267.76" width="207.616" height="84.2845" filterUnits="userSpaceOnUse" color-interpolation-filters="sRGB">
<feFlood flood-opacity="0" result="BackgroundImageFix"/>
<feColorMatrix in="SourceAlpha" type="matrix" values="0 0 0 0 0 0 0 0 0 0 0 0 0 0 0 0 0 0 127 0" result="hardAlpha"/>
<feOffset dy="3"/>
<feGaussianBlur stdDeviation="3"/>
<feColorMatrix type="matrix" values="0 0 0 0 0.54902 0 0 0 0 0.270588 0 0 0 0 0.878431 0 0 0 0.349 0"/>
<feBlend mode="normal" in2="BackgroundImageFix" result="effect1_dropShadow_25_107"/>
<feBlend mode="normal" in="SourceGraphic" in2="effect1_dropShadow_25_107" result="shape"/>
</filter>
<filter id="filter1_d_25_107" x="38" y="120" width="97" height="97" filterUnits="userSpaceOnUse" color-interpolation-filters="sRGB">
<feFlood flood-opacity="0" result="BackgroundImageFix"/>
<feColorMatrix in="SourceAlpha" type="matrix" values="0 0 0 0 0 0 0 0 0 0 0 0 0 0 0 0 0 0 127 0" result="hardAlpha"/>
<feOffset dx="14" dy="6"/>
<feGaussianBlur stdDeviation="14"/>
<feColorMatrix type="matrix" values="0 0 0 0 0.517647 0 0 0 0 0 0 0 0 0 0.380392 0 0 0 0.31 0"/>
<feBlend mode="normal" in2="BackgroundImageFix" result="effect1_dropShadow_25_107"/>
<feBlend mode="normal" in="SourceGraphic" in2="effect1_dropShadow_25_107" result="shape"/>
</filter>
<filter id="filter2_d_25_107" x="49" y="212" width="83" height="83" filterUnits="userSpaceOnUse" color-interpolation-filters="sRGB">
<feFlood flood-opacity="0" result="BackgroundImageFix"/>
<feColorMatrix in="SourceAlpha" type="matrix" values="0 0 0 0 0 0 0 0 0 0 0 0 0 0 0 0 0 0 127 0" result="hardAlpha"/>
<feOffset dx="14" dy="6"/>
<feGaussianBlur stdDeviation="14"/>
<feColorMatrix type="matrix" values="0 0 0 0 0.517647 0 0 0 0 0 0 0 0 0 0.380392 0 0 0 0.31 0"/>
<feBlend mode="normal" in2="BackgroundImageFix" result="effect1_dropShadow_25_107"/>
<feBlend mode="normal" in="SourceGraphic" in2="effect1_dropShadow_25_107" result="shape"/>
</filter>
<filter id="filter3_d_25_107" x="65" y="167" width="97" height="97" filterUnits="userSpaceOnUse" color-interpolation-filters="sRGB">
<feFlood flood-opacity="0" result="BackgroundImageFix"/>
<feColorMatrix in="SourceAlpha" type="matrix" values="0 0 0 0 0 0 0 0 0 0 0 0 0 0 0 0 0 0 127 0" result="hardAlpha"/>
<feOffset dx="14" dy="6"/>
<feGaussianBlur stdDeviation="14"/>
<feColorMatrix type="matrix" values="0 0 0 0 0.517647 0 0 0 0 0 0 0 0 0 0.380392 0 0 0 0.31 0"/>
<feBlend mode="normal" in2="BackgroundImageFix" result="effect1_dropShadow_25_107"/>
<feBlend mode="normal" in="SourceGraphic" in2="effect1_dropShadow_25_107" result="shape"/>
</filter>
<filter id="filter4_d_25_107" x="25" y="69" width="87" height="87" filterUnits="userSpaceOnUse" color-interpolation-filters="sRGB">
<feFlood flood-opacity="0" result="BackgroundImageFix"/>
<feColorMatrix in="SourceAlpha" type="matrix" values="0 0 0 0 0 0 0 0 0 0 0 0 0 0 0 0 0 0 127 0" result="hardAlpha"/>
<feOffset dx="14" dy="6"/>
<feGaussianBlur stdDeviation="14"/>
<feColorMatrix type="matrix" values="0 0 0 0 0.517647 0 0 0 0 0 0 0 0 0 0.380392 0 0 0 0.31 0"/>
<feBlend mode="normal" in2="BackgroundImageFix" result="effect1_dropShadow_25_107"/>
<feBlend mode="normal" in="SourceGraphic" in2="effect1_dropShadow_25_107" result="shape"/>
</filter>
<filter id="filter5_d_25_107" x="304" y="312" width="400" height="135" filterUnits="userSpaceOnUse" color-interpolation-filters="sRGB">
<feFlood flood-opacity="0" result="BackgroundImageFix"/>
<feColorMatrix in="SourceAlpha" type="matrix" values="0 0 0 0 0 0 0 0 0 0 0 0 0 0 0 0 0 0 127 0" result="hardAlpha"/>
<feOffset dx="1" dy="6"/>
<feGaussianBlur stdDeviation="14"/>
<feColorMatrix type="matrix" values="0 0 0 0 0.172549 0 0 0 0 0 0 0 0 0 0.517647 0 0 0 0.18 0"/>
<feBlend mode="normal" in2="BackgroundImageFix" result="effect1_dropShadow_25_107"/>
<feBlend mode="normal" in="SourceGraphic" in2="effect1_dropShadow_25_107" result="shape"/>
</filter>
<filter id="filter6_d_25_107" x="313" y="323" width="111" height="111" filterUnits="userSpaceOnUse" color-interpolation-filters="sRGB">
<feFlood flood-opacity="0" result="BackgroundImageFix"/>
<feColorMatrix in="SourceAlpha" type="matrix" values="0 0 0 0 0 0 0 0 0 0 0 0 0 0 0 0 0 0 127 0" result="hardAlpha"/>
<feOffset dx="-14" dy="6"/>
<feGaussianBlur stdDeviation="14"/>
<feColorMatrix type="matrix" values="0 0 0 0 0.364706 0 0 0 0 0 0 0 0 0 0.517647 0 0 0 0.2 0"/>
<feBlend mode="normal" in2="BackgroundImageFix" result="effect1_dropShadow_25_107"/>
<feBlend mode="normal" in="SourceGraphic" in2="effect1_dropShadow_25_107" result="shape"/>
</filter>
<filter id="filter7_d_25_107" x="353" y="323" width="111" height="111" filterUnits="userSpaceOnUse" color-interpolation-filters="sRGB">
<feFlood flood-opacity="0" result="BackgroundImageFix"/>
<feColorMatrix in="SourceAlpha" type="matrix" values="0 0 0 0 0 0 0 0 0 0 0 0 0 0 0 0 0 0 127 0" result="hardAlpha"/>
<feOffset dx="-14" dy="6"/>
<feGaussianBlur stdDeviation="14"/>
<feColorMatrix type="matrix" values="0 0 0 0 0.517647 0 0 0 0 0 0 0 0 0 0.380392 0 0 0 0.2 0"/>
<feBlend mode="normal" in2="BackgroundImageFix" result="effect1_dropShadow_25_107"/>
<feBlend mode="normal" in="SourceGraphic" in2="effect1_dropShadow_25_107" result="shape"/>
</filter>
<filter id="filter8_d_25_107" x="394" y="323" width="111" height="111" filterUnits="userSpaceOnUse" color-interpolation-filters="sRGB">
<feFlood flood-opacity="0" result="BackgroundImageFix"/>
<feColorMatrix in="SourceAlpha" type="matrix" values="0 0 0 0 0 0 0 0 0 0 0 0 0 0 0 0 0 0 127 0" result="hardAlpha"/>
<feOffset dx="-14" dy="6"/>
<feGaussianBlur stdDeviation="14"/>
<feColorMatrix type="matrix" values="0 0 0 0 0.517647 0 0 0 0 0 0 0 0 0 0.380392 0 0 0 0.2 0"/>
<feBlend mode="normal" in2="BackgroundImageFix" result="effect1_dropShadow_25_107"/>
<feBlend mode="normal" in="SourceGraphic" in2="effect1_dropShadow_25_107" result="shape"/>
</filter>
<filter id="filter9_d_25_107" x="434" y="323" width="111" height="111" filterUnits="userSpaceOnUse" color-interpolation-filters="sRGB">
<feFlood flood-opacity="0" result="BackgroundImageFix"/>
<feColorMatrix in="SourceAlpha" type="matrix" values="0 0 0 0 0 0 0 0 0 0 0 0 0 0 0 0 0 0 127 0" result="hardAlpha"/>
<feOffset dx="-14" dy="6"/>
<feGaussianBlur stdDeviation="14"/>
<feColorMatrix type="matrix" values="0 0 0 0 0.517647 0 0 0 0 0 0 0 0 0 0.380392 0 0 0 0.2 0"/>
<feBlend mode="normal" in2="BackgroundImageFix" result="effect1_dropShadow_25_107"/>
<feBlend mode="normal" in="SourceGraphic" in2="effect1_dropShadow_25_107" result="shape"/>
</filter>
<filter id="filter10_d_25_107" x="474" y="323" width="111" height="111" filterUnits="userSpaceOnUse" color-interpolation-filters="sRGB">
<feFlood flood-opacity="0" result="BackgroundImageFix"/>
<feColorMatrix in="SourceAlpha" type="matrix" values="0 0 0 0 0 0 0 0 0 0 0 0 0 0 0 0 0 0 127 0" result="hardAlpha"/>
<feOffset dx="-14" dy="6"/>
<feGaussianBlur stdDeviation="14"/>
<feColorMatrix type="matrix" values="0 0 0 0 0.517647 0 0 0 0 0 0 0 0 0 0.380392 0 0 0 0.2 0"/>
<feBlend mode="normal" in2="BackgroundImageFix" result="effect1_dropShadow_25_107"/>
<feBlend mode="normal" in="SourceGraphic" in2="effect1_dropShadow_25_107" result="shape"/>
</filter>
<filter id="filter11_d_25_107" x="515" y="323" width="111" height="111" filterUnits="userSpaceOnUse" color-interpolation-filters="sRGB">
<feFlood flood-opacity="0" result="BackgroundImageFix"/>
<feColorMatrix in="SourceAlpha" type="matrix" values="0 0 0 0 0 0 0 0 0 0 0 0 0 0 0 0 0 0 127 0" result="hardAlpha"/>
<feOffset dx="-14" dy="6"/>
<feGaussianBlur stdDeviation="14"/>
<feColorMatrix type="matrix" values="0 0 0 0 0.517647 0 0 0 0 0 0 0 0 0 0.380392 0 0 0 0.2 0"/>
<feBlend mode="normal" in2="BackgroundImageFix" result="effect1_dropShadow_25_107"/>
<feBlend mode="normal" in="SourceGraphic" in2="effect1_dropShadow_25_107" result="shape"/>
</filter>
<filter id="filter12_d_25_107" x="570" y="323" width="111" height="111" filterUnits="userSpaceOnUse" color-interpolation-filters="sRGB">
<feFlood flood-opacity="0" result="BackgroundImageFix"/>
<feColorMatrix in="SourceAlpha" type="matrix" values="0 0 0 0 0 0 0 0 0 0 0 0 0 0 0 0 0 0 127 0" result="hardAlpha"/>
<feOffset dx="1" dy="6"/>
<feGaussianBlur stdDeviation="14"/>
<feColorMatrix type="matrix" values="0 0 0 0 0.466667 0 0 0 0 0 0 0 0 0 0.517647 0 0 0 0.18 0"/>
<feBlend mode="normal" in2="BackgroundImageFix" result="effect1_dropShadow_25_107"/>
<feBlend mode="normal" in="SourceGraphic" in2="effect1_dropShadow_25_107" result="shape"/>
</filter>
<linearGradient id="paint0_linear_25_107" x1="263.211" y1="0.333008" x2="263.211" y2="464.12" gradientUnits="userSpaceOnUse">
<stop stop-color="#C7C1F5"/>
<stop offset="1" stop-color="#C5BFF2" stop-opacity="0"/>
</linearGradient>
<linearGradient id="paint1_linear_25_107" x1="264.436" y1="16.105" x2="264.436" y2="639.68" gradientUnits="userSpaceOnUse">
<stop stop-color="white"/>
<stop offset="1" stop-color="white"/>
</linearGradient>
<clipPath id="clip0_25_107">
<rect width="750" height="537" fill="white"/>
</clipPath>
</defs>
</svg>
