<svg width="1920" height="735" viewBox="0 0 1920 735" fill="none" xmlns="http://www.w3.org/2000/svg">
<g clip-path="url(#clip0_922_32)">
<path d="M1920 0H0V735H1920V0Z" fill="url(#paint0_linear_922_32)"/>
<path opacity="0.07" d="M-2442.42 32.7319C-2442.42 32.7319 -2058.78 157.776 -1869.48 138.164C-1680.18 118.552 -1466.68 36.1999 -1122.27 156.815C-777.854 277.43 -788.088 43.727 -613.719 120.103C-439.35 196.479 -281.934 378.588 117.292 353.895C516.518 329.202 607.592 434.048 877.092 507.519C1018.46 531.327 1151.84 377.062 1381.84 309.555C1528.82 266.417 1813.79 350.678 1926.74 349.22C2217.11 345.474 2301.23 -150.116 2440.61 300.52C2579.98 751.156 2447.65 2103.05 2447.65 2103.05L-2206.41 2165.16L-2483.83 2103.05L-2442.42 32.7319Z" fill="url(#paint1_linear_922_32)"/>
<path opacity="0.04" d="M-2523.57 241.596C-2523.57 241.596 -2372.94 -36.25 -1905 16.621C-1753.39 33.752 -1593.72 111.474 -1404.78 130.021C-1268.4 142.197 -1153.93 64.2651 -851.941 147.068C-549.95 229.871 -231.578 118.754 -28.7876 130.021C234.233 144.633 429.835 430.48 695.051 561.093C893.963 659.062 1020.1 317.835 1271.53 268.162C1522.96 218.489 1518.13 380.627 1700.76 362.419C1883.38 344.211 1878.53 228.562 2005.17 176.535C2131.81 124.508 2275.4 187.666 2419.46 294.335C2664.86 476.051 2475.54 450.935 2487.96 484.062C2500.37 517.189 2450.69 2156.87 2450.69 2156.87L-2480.41 2137.9L-2364.85 869.137L-2523.57 241.596Z" fill="url(#paint2_linear_922_32)"/>
</g>
<defs>
<linearGradient id="paint0_linear_922_32" x1="960" y1="0" x2="960" y2="1853" gradientUnits="userSpaceOnUse">
<stop/>
<stop offset="1" stop-color="#821DBE"/>
<stop offset="1" stop-color="#821DBE"/>
</linearGradient>
<linearGradient id="paint1_linear_922_32" x1="10.2998" y1="32.7319" x2="10.2998" y2="2165.16" gradientUnits="userSpaceOnUse">
<stop stop-color="white"/>
<stop offset="1" stop-color="white" stop-opacity="0"/>
</linearGradient>
<linearGradient id="paint2_linear_922_32" x1="11.2178" y1="9.93054" x2="11.2178" y2="2156.87" gradientUnits="userSpaceOnUse">
<stop stop-color="white"/>
<stop offset="1" stop-color="white"/>
</linearGradient>
<clipPath id="clip0_922_32">
<rect width="1920" height="735" fill="white"/>
</clipPath>
</defs>
</svg>
