<svg width="106" height="70" viewBox="0 0 106 70" fill="none" xmlns="http://www.w3.org/2000/svg">
<path d="M92.9658 23.5616C96.5569 27.1526 96.5569 32.9749 92.9658 36.5659C89.3748 40.157 83.5525 40.157 79.9615 36.5659C76.3704 32.9749 76.3704 27.1526 79.9615 23.5616C83.5525 19.9705 89.3748 19.9705 92.9658 23.5616Z" stroke="#7DF9FF" stroke-width="6" stroke-linecap="round" stroke-linejoin="round"/>
<path d="M63.0121 7.1471C68.5415 12.6766 68.5415 21.6416 63.0121 27.1711C57.4826 32.7006 48.5175 32.7006 42.988 27.1711C37.4586 21.6417 37.4586 12.6766 42.988 7.1471C48.5175 1.61763 57.4826 1.61763 63.0121 7.1471" stroke="#7DF9FF" stroke-width="6" stroke-linecap="round" stroke-linejoin="round"/>
<path d="M26.0384 23.5616C29.6295 27.1526 29.6295 32.9749 26.0384 36.5659C22.4474 40.157 16.6252 40.157 13.0341 36.5659C9.44306 32.9749 9.44306 27.1526 13.0341 23.5616C16.6252 19.9705 22.4474 19.9705 26.0384 23.5616Z" stroke="#7DF9FF" stroke-width="6" stroke-linecap="round" stroke-linejoin="round"/>
<path d="M103 66.6367V61.6549C103 55.3776 97.9137 50.2913 91.6364 50.2913H87.9955" stroke="#7DF9FF" stroke-width="6" stroke-linecap="round" stroke-linejoin="round"/>
<path d="M3 66.6367V61.6549C3 55.3776 8.08637 50.2913 14.3636 50.2913H18.0046" stroke="#7DF9FF" stroke-width="6" stroke-linecap="round" stroke-linejoin="round"/>
<path d="M77.2684 66.6367V59.3594C77.2684 50.5731 70.1456 43.4503 61.3593 43.4503H44.6365C35.8502 43.4503 28.7274 50.5731 28.7274 59.3594V66.6367" stroke="#7DF9FF" stroke-width="6" stroke-linecap="round" stroke-linejoin="round"/>
</svg>
