<svg width="204" height="204" viewBox="0 0 204 204" fill="none" xmlns="http://www.w3.org/2000/svg">
<path d="M102 106.196L185.852 22.2656C185.853 22.2652 185.853 22.2649 185.853 22.2645C189.723 18.3533 196.073 18.3587 199.977 22.2195L199.98 22.223C203.886 26.129 203.886 32.4407 199.981 36.3469C199.98 36.347 199.98 36.3472 199.98 36.3473M102 106.196L199.344 35.7109L199.98 36.3473M102 106.196L81.777 85.973C77.8709 82.0668 71.5588 82.0668 67.6527 85.973C63.7465 89.8791 63.7465 96.1912 67.6527 100.097L94.9183 127.363C96.8071 129.252 99.3022 130.283 102 130.283C104.657 130.283 107.191 129.253 109.082 127.363L109.082 127.363L199.98 36.3473M102 106.196L199.98 36.3473M102 1.1C46.3205 1.1 1.16018 46.2085 1.10003 101.922H1.1V101.961V102C1.1 157.692 46.2293 202.861 101.96 202.9H101.961H102H102.039H102.273V202.9C157.858 202.773 202.9 157.693 202.939 102.079V102.078V93.7188C202.939 88.1826 198.474 83.7172 192.938 83.7172C187.404 83.7172 182.936 88.1801 182.936 93.6797V102.039C182.936 146.697 146.699 182.897 102 182.897H101.961C57.3026 182.897 21.1031 146.66 21.1031 101.961V101.922C21.1031 57.2635 57.34 21.0641 102.039 21.0641H102.078C113.396 21.0641 124.6 23.4591 134.955 28.0568C139.974 30.2875 145.9 28.0595 148.136 22.9892C150.365 17.9703 148.137 12.0446 143.067 9.80966C130.561 4.28116 117.094 1.29721 103.451 1.10945L103.451 1.1H102.508H102.078H102Z" fill="#68BA6C" stroke="#68BA6C" stroke-width="1.8"/>
</svg>
