<svg xmlns="http://www.w3.org/2000/svg" width="16" height="16" fill="none"><path fill-rule="evenodd" d="M16 9.968c0-.17-.026-.34-.085-.51-.277-.8-.415-1.137-.415-1.464s.14-.652.415-1.456A1.54 1.54 0 0 0 16 6.031a1.61 1.61 0 0 0-.704-1.321c-.723-.5-1.033-.686-1.233-.954s-.284-.606-.552-1.408c-.226-.675-.88-1.13-1.616-1.13H11.9c-.89.003-1.254.028-1.578-.075S9.71.812 9 .313A1.74 1.74 0 0 0 8 0c-.352 0-.703.104-1.002.313-.716.504-.998.732-1.32.832s-.685.074-1.57.07h-.005c-.736 0-1.4.456-1.615 1.13-.268.805-.358 1.148-.555 1.41s-.5.45-1.23.95C.254 5.023 0 5.518 0 6.032c0 .17.027.34.085.51C.36 7.35.5 7.677.5 8.004s-.14.65-.414 1.457C.027 9.627 0 9.8 0 9.968c0 .513.254 1.01.705 1.322.72.5 1.03.685 1.23.953s.286.606.554 1.4c.225.675.878 1.13 1.615 1.13H4.1c.89-.003 1.254-.03 1.578.074s.6.33 1.31.828a1.74 1.74 0 0 0 2.003-.001c.7-.498 1-.726 1.31-.827s.688-.077 1.578-.075h.005c.736 0 1.4-.456 1.616-1.13.267-.802.356-1.145.55-1.408s.5-.453 1.234-.954c.45-.312.703-.808.703-1.32zM9.667 6.03L7.272 8.426l-.94-.94c-.136-.136-.32-.213-.514-.213s-.378.077-.514.213S5.1 7.807 5.1 8s.077.378.213.514L6.758 9.97c.067.068.147.122.236.158s.183.056.278.056.2-.02.278-.056.168-.09.236-.158l2.91-2.91a.73.73 0 0 0 .213-.514.73.73 0 0 0-.213-.514c-.068-.068-.148-.12-.236-.158s-.183-.055-.278-.055-.2.02-.278.055-.168.1-.236.158z" fill="#516eff"/></svg>