<svg width="200" height="200" viewBox="0 0 200 200" fill="none" xmlns="http://www.w3.org/2000/svg">
<path d="M114.141 100L142.43 128.281C146.336 132.187 146.336 138.527 142.43 142.434C138.523 146.34 132.184 146.34 128.277 142.434L100 114.141L71.7266 142.43C67.8125 146.336 61.4805 146.336 57.5742 142.43C53.668 138.523 53.668 132.184 57.5742 128.277L85.8672 99.9961L57.5742 71.7148C53.668 67.8086 53.668 61.4688 57.5742 57.5625C61.4805 53.6563 67.8086 53.6563 71.7266 57.5625L100 85.8594L128.281 57.5664C132.187 53.6602 138.527 53.6602 142.434 57.5664C146.34 61.4727 146.34 67.8125 142.434 71.7188L114.141 100ZM100 200C44.7773 200 0 155.227 0 100C0 44.7656 44.7773 0 100 0C155.234 0 200 44.7656 200 100C200 155.227 155.234 200 100 200ZM100 180C144.191 180 180 144.18 180 100C180 55.8203 144.191 20 100 20C55.8203 20 20 55.8203 20 100C20 144.18 55.8203 180 100 180Z" fill="#BB2023"/>
</svg>
