<svg xmlns="http://www.w3.org/2000/svg" xmlns:xlink="http://www.w3.org/1999/xlink" width="116.755" height="116.755" viewBox="0 0 116.755 116.755">
  <defs>
    <filter id="椭圆_3214" x="0" y="0" width="116.755" height="116.755" filterUnits="userSpaceOnUse">
      <feOffset dx="14" dy="6" input="SourceAlpha"/>
      <feGaussianBlur stdDeviation="14" result="blur"/>
      <feFlood flood-color="#840061" flood-opacity="0.31"/>
      <feComposite operator="in" in2="blur"/>
      <feComposite in="SourceGraphic"/>
    </filter>
  </defs>
  <g id="组_6889" data-name="组 6889" transform="translate(-1046.146 -347.318)">
    <g transform="matrix(1, 0, 0, 1, 1046.15, 347.32)" filter="url(#椭圆_3214)">
      <ellipse id="椭圆_3214-2" data-name="椭圆 3214" cx="16.377" cy="16.377" rx="16.377" ry="16.377" transform="translate(28 36)" fill="#fff"/>
    </g>
    <g id="组_6804" data-name="组 6804" transform="translate(1080.017 392.726) rotate(-11)">
      <path id="路径_19884" data-name="路径 19884" d="M4.794,16a25.779,25.779,0,0,1-3.293-.81,3.6,3.6,0,0,1-.98-.586A1.325,1.325,0,0,1,.045,13.2c.386-1.708.745-3.421,1.1-5.136a3.206,3.206,0,0,1,.842-1.568q.84-.9,1.726-1.753A4.173,4.173,0,0,0,5.148,2c.029-.381.135-.754.2-1.132.12-.689.374-.9,1.067-.868A2.006,2.006,0,0,1,8.348,1.638a5,5,0,0,1-.132,2.538,12.9,12.9,0,0,1-.429,1.3c-.129.322-.061.451.282.516.842.161,1.679.348,2.516.534a8.146,8.146,0,0,1,.9.247,1.731,1.731,0,0,1,.991,2.746.672.672,0,0,0-.04.776,1.776,1.776,0,0,1-.736,2.177.45.45,0,0,0-.285.492,1.541,1.541,0,0,1-1.151,1.653.387.387,0,0,0-.3.37A1.767,1.767,0,0,1,7.626,16.6C6.75,16.427,5.876,16.235,4.794,16Z" transform="translate(5.346 0)" fill="#c052cd"/>
      <path id="路径_19885" data-name="路径 19885" d="M5.077,5.461c-.263,1.228-.52,2.459-.788,3.685-.165.758-.5.974-1.255.818s-1.5-.308-2.243-.48A.867.867,0,0,1,.035,8.324Q.823,4.553,1.64.791A.875.875,0,0,1,2.8.03c.752.139,1.5.3,2.244.474s.968.516.811,1.269C5.6,3,5.338,4.231,5.077,5.461Z" transform="translate(0 4.396)" fill="#c052cd"/>
    </g>
  </g>
</svg>
