<svg width="123" height="115" viewBox="0 0 123 115" fill="none" xmlns="http://www.w3.org/2000/svg">
<g clip-path="url(#clip0_2366_2)">
<mask id="mask0_2366_2" style="mask-type:luminance" maskUnits="userSpaceOnUse" x="0" y="0" width="123" height="115">
<path d="M122.88 0H0V114.42H122.88V0Z" fill="white"/>
</mask>
<g mask="url(#mask0_2366_2)">
<path fill-rule="evenodd" clip-rule="evenodd" d="M9.32 0H113.56C118.69 0 122.88 4.2 122.88 9.32V82.94C122.88 88.05 118.67 92.26 113.56 92.26H83.84L67.67 111.32C64.09 115.55 58.22 115.36 54.86 111.32L39.04 92.26H9.32C4.21 92.26 0 88.07 0 82.94V9.32C0 4.19 4.19 0 9.32 0Z" fill="#EE4856"/>
</g>
<path d="M76.5234 19.0634C73.6227 19.3347 71.2438 20.2111 66.3191 22.8404C62.4794 24.8646 60.3718 25.6784 57.7842 26.0958C56.9912 26.2419 55.5931 26.2627 51.4404 26.2627C45.6392 26.2627 44.6376 26.3253 43.3646 26.8262C39.5667 28.3078 37 33.2325 37 39.0755C37 44.8976 39.5667 49.8432 43.3646 51.3248C44.6376 51.8256 45.6392 51.8882 51.4404 51.8882C57.0538 51.8882 57.7007 51.93 59.7249 52.4517C61.0604 52.8064 62.7507 53.495 64.6079 54.4341C71.369 57.8981 71.6195 58.0233 74.061 58.6285C75.5217 59.0041 77.7337 59.2128 78.631 59.0667C80.7595 58.7328 82.7211 56.3539 84.2027 52.3891C86.2894 46.7757 86.8528 37.9904 85.5799 30.9371C84.4948 24.9481 82.262 20.5867 79.6744 19.3973C78.8188 19.0217 78.005 18.9173 76.5234 19.0634ZM78.1719 22.8404C80.0291 23.7378 81.6359 27.7861 82.3872 33.483C82.6376 35.3402 82.7211 40.8284 82.5541 42.8525C81.8863 50.4066 79.737 55.5192 77.212 55.5192C76.5025 55.5192 76.0017 55.2688 75.3756 54.6219C73.7897 52.9942 72.6002 49.4676 71.9742 44.6472C71.7238 42.7273 71.6403 37.3643 71.8073 35.2358C72.4333 27.7652 74.6244 22.5692 77.1703 22.5692C77.4415 22.6109 77.9006 22.7152 78.1719 22.8404Z" fill="white"/>
<path d="M73.6645 34.923C73.5601 36.4255 73.581 42.6023 73.7062 43.7083L73.7897 44.5222L74.6452 44.3135C76.6277 43.8127 78.1301 42.7067 78.6518 41.392C78.8814 40.8077 78.9231 40.5364 78.9231 39.0757C78.9231 37.6358 78.8814 37.3437 78.6727 36.7803C78.1719 35.5282 76.9407 34.5266 75.1878 33.984C73.7271 33.5249 73.7688 33.4832 73.6645 34.923Z" fill="white"/>
<path d="M46.14 53.912C46.1609 54.0163 46.5783 56.9378 47.0373 60.4018C47.9555 67.1838 48.1851 68.3107 48.7485 69.5627C49.4163 71.0443 50.397 71.6912 52.296 71.8999C53.6107 72.046 60.3092 72.0251 60.8726 71.879C61.4986 71.7121 62.1038 71.0443 62.3125 70.3348C62.5211 69.5836 62.4794 68.2272 62.2081 67.2881C61.9577 66.4117 61.5404 65.6813 60.4761 64.2415C57.9929 60.8609 56.9912 58.9202 56.6991 56.75C56.5113 55.3727 55.9061 54.5171 54.7584 53.9954C54.2576 53.7659 54.028 53.745 50.1675 53.7242C46.2861 53.7033 46.0983 53.7033 46.14 53.912Z" fill="white"/>
</g>
<defs>
<clipPath id="clip0_2366_2">
<rect width="123" height="115" fill="white"/>
</clipPath>
</defs>
</svg>
