<svg xmlns="http://www.w3.org/2000/svg" xmlns:xlink="http://www.w3.org/1999/xlink" width="116.755" height="116.755" viewBox="0 0 116.755 116.755">
  <defs>
    <filter id="椭圆_3212" x="0" y="0" width="116.755" height="116.755" filterUnits="userSpaceOnUse">
      <feOffset dx="14" dy="6" input="SourceAlpha"/>
      <feGaussianBlur stdDeviation="14" result="blur"/>
      <feFlood flood-color="#840061" flood-opacity="0.31"/>
      <feComposite operator="in" in2="blur"/>
      <feComposite in="SourceGraphic"/>
    </filter>
  </defs>
  <g id="组_6891" data-name="组 6891" transform="translate(-1024.576 -309.77)">
    <g transform="matrix(1, 0, 0, 1, 1024.58, 309.77)" filter="url(#椭圆_3212)">
      <ellipse id="椭圆_3212-2" data-name="椭圆 3212" cx="16.377" cy="16.377" rx="16.377" ry="16.377" transform="translate(28 36)" fill="#fff"/>
    </g>
    <path id="路径_19882" data-name="路径 19882" d="M.45,2.587a4.552,4.552,0,0,1,8.6,1.262,4.555,4.555,0,1,1,5.571,7.04l-8.066,4.4a1.18,1.18,0,0,1-1.6-.472L.558,6.749A4.559,4.559,0,0,1,.45,2.587Z" transform="matrix(0.809, -0.588, 0.588, 0.809, 1057.539, 360.904)" fill="#f12f84"/>
  </g>
</svg>
