<svg xmlns="http://www.w3.org/2000/svg" xmlns:xlink="http://www.w3.org/1999/xlink" width="215.304" height="96.24" viewBox="0 0 215.304 96.24">
  <defs>
    <linearGradient id="linear-gradient" x1="-0.074" y1="0.5" x2="1.073" y2="0.5" gradientUnits="objectBoundingBox">
      <stop offset="0" stop-color="#d46dff"/>
      <stop offset="1" stop-color="#ea5eff"/>
    </linearGradient>
    <filter id="联合_60" x="0" y="0" width="174.276" height="74.56" filterUnits="userSpaceOnUse">
      <feOffset dy="3" input="SourceAlpha"/>
      <feGaussianBlur stdDeviation="3" result="blur"/>
      <feFlood flood-color="#8c45e0" flood-opacity="0.349"/>
      <feComposite operator="in" in2="blur"/>
      <feComposite in="SourceGraphic"/>
    </filter>
  </defs>
  <g id="组_6887" data-name="组 6887" transform="translate(-1047.569 -445.385)">
    <g transform="matrix(1, 0, 0, 1, 1047.57, 445.39)" filter="url(#联合_60)">
      <path id="联合_60-2" data-name="联合 60" d="M72.955,53.583,69.989,48.5H6a6,6,0,0,1-6-6V6A6,6,0,0,1,6,0H150.276a6,6,0,0,1,6,6V42.5a6,6,0,0,1-6,6H86.286L83.32,53.583a6,6,0,0,1-10.365,0Z" transform="translate(9 6)" fill="url(#linear-gradient)"/>
    </g>
    <path id="联合_61" data-name="联合 61" d="M11.017,21.724h-.155A10.862,10.862,0,1,1,19.047,18l2.331,1.955a1,1,0,0,1-.643,1.767Z" transform="translate(1076.855 464.279)" fill="#fff"/>
    <path id="路径_17844" data-name="路径 17844" d="M.643,3.7a6.5,6.5,0,0,1,12.29,1.8,6.508,6.508,0,1,1,7.958,10.057L9.368,21.838a1.685,1.685,0,0,1-2.288-.674L.8,9.642A6.513,6.513,0,0,1,.643,3.7Z" transform="matrix(0.966, -0.259, 0.259, 0.966, 1119.941, 467.242)" fill="#fff"/>
    <path id="icon_person_add" d="M10.329,10.329A5.164,5.164,0,1,0,5.164,5.164,5.163,5.163,0,0,0,10.329,10.329Zm0,2.582C6.882,12.911,0,14.641,0,18.076v2.582H20.658V18.076C20.658,14.641,13.776,12.911,10.329,12.911Z" transform="translate(1170.109 464.279)" fill="#fff"/>
    <g id="组_6803" data-name="组 6803" transform="translate(1262.873 461.639) rotate(151)">
      <path id="路径_19878" data-name="路径 19878" d="M60.5,16.622A50.338,50.338,0,0,0,5.51,4.492a25.039,25.039,0,0,0,2.222-3.1C8.366.36,6.742-.585,6.111.445,4.443,3.162,1.8,4.943.127,7.566A.949.949,0,0,0,1.188,8.946C5.307,7.484,9.635,8,13.92,7.852c1.2-.04,1.21-1.918,0-1.877-2.456.083-4.916-.034-7.346.1a48.45,48.45,0,0,1,52.6,11.877C60.011,18.827,61.337,17.5,60.5,16.622Z" transform="translate(0 0)" fill="#a95bd1"/>
      <path id="路径_19879" data-name="路径 19879" d="M1.052.2C.513-.4-.37.487.167,1.085.823,1.816,1.415,2.6,2.084,3.321c.55.591,1.434-.3.885-.885C2.3,1.717,1.708.931,1.052.2Z" transform="translate(52.076 14.905)" fill="#a95bd1"/>
    </g>
    <g id="组_6801" data-name="组 6801" transform="matrix(0.819, -0.574, 0.574, 0.819, 1207.291, 511.122)">
      <path id="路径_19880" data-name="路径 19880" d="M20.881,35.954c.248.885.383,1.836-.505,2.36-1.085.639-2.77-.208-3.848-.5-1.9-.518-3.788-1.091-5.662-1.7-1.49-.486-.852-2.848.65-2.358,1.353.442,2.712.865,4.08,1.259.068.02.23.073.447.148A36.847,36.847,0,0,1,.194,1.168C.357-.381,2.8-.4,2.639,1.168a34.465,34.465,0,0,0,14.971,32.1q-.424-1.6-.849-3.21a1.224,1.224,0,0,1,2.358-.65l1.475,5.573c.02.072.044.152.067.23A1.039,1.039,0,0,1,20.881,35.954Z" transform="translate(1.871 0)" fill="#a95bd1"/>
      <g id="组_6800" data-name="组 6800" transform="translate(0 20.726)">
        <path id="路径_19881" data-name="路径 19881" d="M4.407,7.407A30.565,30.565,0,0,1,.185,1.816,1.223,1.223,0,0,1,2.3.582a27.7,27.7,0,0,0,3.841,5.1,1.223,1.223,0,0,1-1.73,1.729Z" transform="translate(0 0)" fill="#a95bd1"/>
      </g>
    </g>
  </g>
</svg>
