<svg width="123" height="115" viewBox="0 0 123 115" fill="none" xmlns="http://www.w3.org/2000/svg">
<g clip-path="url(#clip0_612_8)">
<path fill-rule="evenodd" clip-rule="evenodd" d="M9.32 0H113.56C118.69 0 122.88 4.2 122.88 9.32V82.94C122.88 88.05 118.67 92.26 113.56 92.26H83.84L67.67 111.32C64.09 115.55 58.22 115.36 54.86 111.32L39.04 92.26H9.32C4.21 92.26 0 88.07 0 82.94V9.32C0 4.19 4.19 0 9.32 0Z" fill="#EE4856"/>
<path d="M60.4561 18C64.9774 18.0025 69.4229 19.1607 73.3704 21.3646C77.3179 23.5684 80.6363 26.7447 83.0103 30.5917C85.3843 34.4387 86.735 38.8287 86.9343 43.3446C87.1335 47.8604 86.1746 52.3523 84.1487 56.3933L86.9274 67.4972C87.0324 67.9245 87.0234 68.3719 86.9013 68.7946C86.7792 69.2174 86.5484 69.6007 86.2317 69.9063C85.9151 70.2119 85.5239 70.4292 85.097 70.5363C84.6701 70.6435 84.2226 70.6368 83.7992 70.5169L73.4782 67.6094C69.9464 69.591 66.0074 70.7372 61.9636 70.9599C57.9198 71.1826 53.8787 70.4759 50.1506 68.894C46.4226 67.3121 43.1066 64.8972 40.4574 61.8346C37.8082 58.772 35.8962 55.1431 34.8682 51.2267C33.8401 47.3103 33.7234 43.2104 34.527 39.2419C35.3306 35.2733 37.0331 31.5417 39.5038 28.3334C41.9745 25.1251 45.1477 22.5255 48.7798 20.7342C52.4118 18.9429 56.4062 18.0076 60.4561 18Z" fill="white"/>
</g>
<defs>
<clipPath id="clip0_612_8">
<rect width="122.88" height="114.42" fill="white"/>
</clipPath>
</defs>
</svg>
