<svg width="123" height="115" viewBox="0 0 123 115" fill="none" xmlns="http://www.w3.org/2000/svg">
<g clip-path="url(#clip0_616_2)">
<path fill-rule="evenodd" clip-rule="evenodd" d="M9.32 0H113.56C118.69 0 122.88 4.2 122.88 9.32V82.94C122.88 88.05 118.67 92.26 113.56 92.26H83.84L67.67 111.32C64.09 115.55 58.22 115.36 54.86 111.32L39.04 92.26H9.32C4.21 92.26 0 88.07 0 82.94V9.32C0 4.19 4.19 0 9.32 0Z" fill="#EE4856"/>
<path d="M61.5 24C47.1705 24 34.1757 31.8398 24.5868 44.5738C23.8044 45.6171 23.8044 47.0746 24.5868 48.1178C34.1757 60.8671 47.1705 68.707 61.5 68.707C75.8296 68.707 88.8243 60.8671 98.4132 48.1332C99.1956 47.0899 99.1956 45.6324 98.4132 44.5891C88.8243 31.8398 75.8296 24 61.5 24ZM62.5279 62.0945C53.0158 62.6928 45.1606 54.853 45.759 45.3256C46.2499 37.4704 52.6169 31.1034 60.4721 30.6125C69.9842 30.0141 77.8394 37.8539 77.241 47.3814C76.7347 55.2212 70.3678 61.5882 62.5279 62.0945ZM62.0523 54.8223C56.928 55.1445 52.6936 50.9254 53.0311 45.8012C53.292 41.5667 56.7286 38.1454 60.963 37.8693C66.0873 37.5471 70.3217 41.7662 69.9842 46.8905C69.708 51.1402 66.2714 54.5615 62.0523 54.8223Z" fill="white"/>
</g>
<defs>
<clipPath id="clip0_616_2">
<rect width="122.88" height="114.42" fill="white"/>
</clipPath>
</defs>
</svg>
