<svg width="288" height="486" viewBox="0 0 288 486" fill="none" xmlns="http://www.w3.org/2000/svg">
<path d="M252.227 15H53C37.536 15 25 27.536 25 43V427.528C25 442.992 37.536 455.528 53 455.528H252.227C267.691 455.528 280.227 442.992 280.227 427.528V43C280.227 27.536 267.691 15 252.227 15Z" fill="url(#paint0_linear_23_40)"/>
<path d="M269.195 417.895C269.195 431.162 258.089 441.917 244.389 441.917H62.474C48.774 441.917 37.667 431.162 37.667 417.895V49.554C37.667 36.287 48.773 25.532 62.474 25.532H87.281V34.132C87.3507 38.4487 89.1322 42.5609 92.2336 45.5642C95.335 48.5676 99.5023 50.216 103.819 50.147H203.046C207.363 50.2157 211.53 48.5672 214.631 45.5639C217.732 42.5606 219.513 38.4485 219.583 34.132V25.532H244.39C258.09 25.532 269.196 36.287 269.196 49.554L269.195 417.895Z" fill="url(#paint1_linear_23_40)"/>
<path d="M185.299 32.089H119.925C117.608 32.089 115.729 33.9676 115.729 36.285C115.729 38.6024 117.608 40.481 119.925 40.481H185.299C187.616 40.481 189.495 38.6024 189.495 36.285C189.495 33.9676 187.616 32.089 185.299 32.089Z" fill="white"/>
<path opacity="0.15" d="M167.621 87.271H101.192V94.264H167.621V87.271Z" fill="#BA4DCA"/>
<path opacity="0.15" d="M199.087 102.006H101.192V108.999H199.087V102.006Z" fill="#BA4DCA"/>
<path opacity="0.15" d="M252.257 127.031H63.459V134.024H252.257V127.031Z" fill="#BA4DCA"/>
<path opacity="0.16" d="M119.399 154.373H63.459V224.298H119.399V154.373Z" fill="#BE50CC"/>
<path opacity="0.16" d="M185.827 154.373H129.887V224.298H185.827V154.373Z" fill="#BE50CC"/>
<path opacity="0.46" d="M252.256 154.373H196.316V224.298H252.256V154.373Z" fill="#E3E7F3"/>
<path opacity="0.22" d="M39.069 76H268.803" stroke="#EBBEEE"/>
<path opacity="0.22" d="M39.069 234.041H268.803" stroke="#EBBEEE"/>
<g opacity="0.39">
<path d="M74.6799 112.468C82.5964 112.468 89.0139 106.05 89.0139 98.134C89.0139 90.2175 82.5964 83.8 74.6799 83.8C66.7635 83.8 60.3459 90.2175 60.3459 98.134C60.3459 106.05 66.7635 112.468 74.6799 112.468Z" fill="#B249C4"/>
<path d="M74.68 102.994C77.7595 102.994 80.256 99.7669 80.256 95.786C80.256 91.8051 77.7595 88.578 74.68 88.578C71.6005 88.578 69.104 91.8051 69.104 95.786C69.104 99.7669 71.6005 102.994 74.68 102.994Z" fill="white"/>
<path d="M74.679 103.529C70.193 103.529 66.242 105.149 63.927 107.607C65.2712 109.133 66.9252 110.356 68.7787 111.194C70.6323 112.031 72.643 112.464 74.677 112.464C76.711 112.464 78.7217 112.031 80.5753 111.194C82.4288 110.356 84.0828 109.133 85.427 107.607C83.116 105.149 79.165 103.529 74.679 103.529Z" fill="white"/>
<path d="M77.197 100.652C77.197 99.2613 76.0699 98.134 74.6795 98.134C73.2891 98.134 72.162 99.2613 72.162 100.652V104.719C72.162 106.11 73.2891 107.237 74.6795 107.237C76.0699 107.237 77.197 106.11 77.197 104.719V100.652Z" fill="white"/>
<path d="M69.8729 96.12C70.1979 97.055 70.0729 97.949 69.5849 98.12C69.0969 98.291 68.4469 97.666 68.1219 96.731C67.7969 95.796 67.9219 94.902 68.4099 94.731C68.8979 94.56 69.5489 95.186 69.8729 96.12Z" fill="white"/>
<path d="M79.483 96.12C79.158 97.055 79.283 97.949 79.771 98.12C80.259 98.291 80.909 97.666 81.234 96.731C81.559 95.796 81.434 94.902 80.946 94.731C80.458 94.56 79.81 95.186 79.483 96.12Z" fill="white"/>
<path d="M81.5219 96.743C81.539 94.9564 81.326 93.1751 80.8879 91.443C80.5701 90.49 80.0472 89.6183 79.3561 88.8893C78.665 88.1602 77.8225 87.5914 76.8879 87.223C75.9455 86.8718 74.9297 86.7643 73.9346 86.9104C72.9396 87.0566 71.9975 87.4516 71.1959 88.059C70.902 88.2525 70.6588 88.5137 70.4867 88.8206C70.3146 89.1276 70.2187 89.4713 70.2069 89.823C69.7144 89.7145 69.1996 89.7805 68.7504 90.0098C68.3013 90.2391 67.9458 90.6174 67.7449 91.08C67.3702 92.0194 67.2461 93.0401 67.3849 94.042C67.5709 96.986 68.0199 100.005 67.2229 102.842L74.5539 103.064C75.3359 103.088 76.1199 103.111 76.9019 103.078C78.9019 102.992 80.9659 102.542 82.8449 103.219C82.1216 101.128 81.6768 98.9504 81.5219 96.743Z" fill="white"/>
</g>
<defs>
<linearGradient id="paint0_linear_23_40" x1="152.614" y1="15" x2="152.614" y2="455.528" gradientUnits="userSpaceOnUse">
<stop stop-color="#C6BDF3"/>
<stop offset="1" stop-color="#C5BCF2" stop-opacity="0"/>
</linearGradient>
<linearGradient id="paint1_linear_23_40" x1="153.432" y1="25.532" x2="153.432" y2="441.917" gradientUnits="userSpaceOnUse">
<stop stop-color="white"/>
<stop offset="1" stop-color="white" stop-opacity="0"/>
</linearGradient>
</defs>
</svg>
