<svg width="100" height="100" viewBox="0 0 100 100" fill="none" xmlns="http://www.w3.org/2000/svg">
<path d="M98.3334 8.88889C98.0556 5 95.0001 1.94445 91.1112 1.66667C83.3334 1.11112 68.0556 1.66667 53.6112 9.16667C46.389 13.0556 38.3334 19.4444 32.2223 26.9444L31.9445 27.2222L17.7778 28.3334C15.5556 28.6112 13.3334 29.7223 11.9445 31.6667L2.22227 46.1112C1.38894 47.5001 1.11116 49.4445 1.66672 51.1112C2.22227 52.7778 3.88893 53.8889 5.5556 54.1667L17.5 56.1112C17.5 56.3889 17.5 56.6667 17.2223 56.6667C16.6667 58.8889 17.7778 61.3889 19.1667 63.0556L35.8334 79.7223C37.2223 81.1112 39.1667 81.9445 41.1112 81.9445C41.6667 81.9445 41.9445 81.9445 42.2223 81.9445C42.5001 81.9445 42.7778 81.9445 42.7778 81.6667L44.7223 93.6112C45.0001 95.5556 46.1112 96.9445 47.7779 97.5001C48.3334 97.7778 49.1667 98.0556 49.7223 98.0556C50.5556 98.0556 51.6667 97.7778 52.5001 97.2223L66.9445 87.5001C68.889 86.1112 70.2778 84.1667 70.2778 81.6667L71.389 67.5001L71.6667 67.2223C78.889 61.1112 85.8334 53.0556 89.4445 45.8334C98.3334 31.9445 98.6112 16.6667 98.3334 8.88889ZM65.2778 83.0556L51.1112 92.2223L49.1667 80.5556C55.2778 78.6112 60.8334 75.8334 66.389 72.2223L65.8334 81.3889C65.8334 82.2223 65.5556 82.7778 65.2778 83.0556ZM40.5556 76.1112L23.8889 59.4445C23.3334 58.8889 23.3334 58.6112 23.3334 57.7778C23.8889 54.7223 24.4445 51.9445 25.5556 49.1667L50.2778 73.8889C46.9445 75.0001 44.1667 75.8334 41.6667 76.1112C41.389 76.6667 41.1112 76.3889 40.5556 76.1112ZM18.3334 34.1667L27.5 33.6112C23.8889 39.1667 21.1112 45.0001 19.1667 50.8334L7.50004 48.8889L16.6667 34.7223C17.2223 34.4445 17.7778 34.1667 18.3334 34.1667ZM69.4445 63.3334C64.7223 67.2223 60.5556 70.0001 56.389 71.9445L28.0556 43.8889C30.5556 38.6112 33.889 33.8889 36.6667 30.8334C42.5001 23.8889 49.4445 18.0556 56.389 14.4444C69.7223 7.5 83.889 7.22222 90.8334 7.5C91.6667 7.5 92.5001 8.33333 92.7778 9.44444C93.3334 16.6667 92.7778 30.5556 85.8334 43.8889C82.2223 50.5556 76.1112 57.5001 69.4445 63.3334Z" fill="#7DF9FF"/>
<path d="M68.0556 46.3889C71.6667 46.3889 75.2778 45 78.0556 42.2222C80.8334 39.4444 82.2223 36.1111 82.2223 32.2222C82.2223 28.3333 80.8334 25 78.0556 22.2222C72.5 16.6667 63.6111 16.6667 58.0556 22.2222C55.2778 25 53.8889 28.3333 53.8889 32.2222C53.8889 36.1111 55.2778 39.4444 58.0556 42.2222C60.5556 45 64.1667 46.3889 68.0556 46.3889ZM61.9445 26.1111C63.6111 24.4444 65.8334 23.6111 68.0556 23.6111C70 23.6111 72.5 24.4444 74.1667 26.1111C75.8334 27.7778 76.6667 29.7222 76.6667 32.2222C76.6667 34.7222 75.8334 36.6667 74.1667 38.3333C70.8334 41.6667 65.5556 41.6667 62.2223 38.3333C60.5556 36.6667 59.7223 34.7222 59.7223 32.2222C59.7223 29.7222 60.2778 27.7778 61.9445 26.1111Z" fill="#7DF9FF"/>
<path d="M4.72211 81.3888C5.27766 81.3888 6.111 81.1111 6.66655 80.5555L15.8332 71.3889C16.9443 70.2777 16.9443 68.3333 15.8332 67.5C14.7221 66.3888 12.7777 66.3888 11.9443 67.5L2.77767 76.3888C1.66656 77.5 1.66656 79.4444 2.77767 80.2777C3.05544 81.1111 3.88877 81.3888 4.72211 81.3888Z" fill="#7DF9FF"/>
<path d="M24.1666 75.8333C23.0555 74.7222 21.1111 74.7222 20.2777 75.8333L2.49996 93.6111C1.38885 94.7222 1.38885 96.6667 2.49996 97.5C3.05553 98.0556 3.61108 98.3333 4.44441 98.3333C4.99997 98.3333 5.8333 98.0556 6.38886 97.5L24.1666 79.7222C25.2777 78.6111 25.2777 76.9444 24.1666 75.8333Z" fill="#7DF9FF"/>
<path d="M28.8889 84.1667L19.7222 93.3334C18.6111 94.4445 18.6111 96.3889 19.7222 97.2223C20.2778 97.7778 20.8334 98.0556 21.6667 98.0556C22.2223 98.0556 23.0556 97.7778 23.6111 97.2223L32.7778 88.0556C33.8889 86.9445 33.8889 85 32.7778 84.1667C31.6667 83.0556 29.7223 83.0556 28.8889 84.1667Z" fill="#7DF9FF"/>
</svg>
